# xmcd
#
# Track frame offsets: 
#        150
#        24022
#        50191
#        79957
#        99866
#        128810
#        166096
#        200019
#        226213
#        246917
#        270206
#        298077
#
# Disc length: 4307 seconds
#
# Revision: 1
# Processed by: cddbd v1.5.2PL0 Copyright (c) Steve Scherf et al.
# Submitted via: ExactAudioCopy v0.95a5
#
DISCID=9a10d10c
DTITLE=Breakmasyna - Czestochowska Masakra Gitara Elekryczna
DYEAR=2009
DGENRE=blues
TTITLE0=Hej gitarzysto
TTITLE1=Deszczowa piosenka
TTITLE2=Ulica wolnosci
TTITLE3=Poranna depresja
TTITLE4=The sky is crying
TTITLE5=Rywal
TTITLE6=Little red rooster
TTITLE7=Ostatni pociag
TTITLE8=Milionerzy i bezdomni
TTITLE9=Zielona Gora
TTITLE10=Smutny czestochowki blues
TTITLE11=O jednej wisniewskiej
EXTD=
EXTT0=
EXTT1=
EXTT2=
EXTT3=
EXTT4=
EXTT5=
EXTT6=
EXTT7=
EXTT8=
EXTT9=
EXTT10=
EXTT11=
PLAYORDER=
